<?xml version="1.0" encoding="UTF-8" standalone="no"?>
<svg
   enable-background="new 0 0 64 96"
   height="58"
   viewBox="0 0 100 58.000004"
   width="100"
   version="1.1"
   id="svg58"
   sodipodi:docname="circus.svg"
   inkscape:version="1.1 (c68e22c387, 2021-05-23)"
   xmlns:inkscape="http://www.inkscape.org/namespaces/inkscape"
   xmlns:sodipodi="http://sodipodi.sourceforge.net/DTD/sodipodi-0.dtd"
   xmlns="http://www.w3.org/2000/svg"
   xmlns:svg="http://www.w3.org/2000/svg"
   xmlns:rdf="http://www.w3.org/1999/02/22-rdf-syntax-ns#"
   xmlns:cc="http://creativecommons.org/ns#"
   xmlns:dc="http://purl.org/dc/elements/1.1/">
  <metadata
     id="metadata64">
    <rdf:RDF>
      <cc:Work
         rdf:about="">
        <dc:format>image/svg+xml</dc:format>
        <dc:type
           rdf:resource="http://purl.org/dc/dcmitype/StillImage" />
        <dc:title />
      </cc:Work>
    </rdf:RDF>
  </metadata>
  <defs
     id="defs62" />
  <sodipodi:namedview
     units="px"
     inkscape:document-rotation="0"
     pagecolor="#ffffff"
     bordercolor="#666666"
     borderopacity="1"
     objecttolerance="10"
     gridtolerance="10"
     guidetolerance="10"
     inkscape:pageopacity="0"
     inkscape:pageshadow="2"
     inkscape:window-width="1920"
     inkscape:window-height="1020"
     id="namedview60"
     showgrid="false"
     fit-margin-top="0"
     fit-margin-left="0"
     fit-margin-right="0"
     fit-margin-bottom="0"
     inkscape:zoom="17.875"
     inkscape:cx="57.482516"
     inkscape:cy="21.370629"
     inkscape:window-x="0"
     inkscape:window-y="33"
     inkscape:window-maximized="1"
     inkscape:current-layer="svg58"
     inkscape:pagecheckerboard="0" />
  <g
     id="g2920"
     transform="matrix(0.99986411,0,0,1.0086057,-49.21255,-260.41354)">
    <g
       transform="translate(0.76334)"
       id="g2914">
      <path
         id="path546-3"
         d="m 98.47332,308.19681 v 7.5 l -50.000001,-25 v -7.5 z"
         fill="#bb8d5d" />
      <path
         id="path548-6"
         d="m 98.47332,315.69681 v -7.5 l 50,-25 v 7.5 z"
         fill="#9e7758" />
    </g>
    <path
       id="path208"
       d="m 49.23666,283.19681 50,-25 50,25 -50,25 z"
       fill="#8bb54a" />
  </g>
  <path
     id="path2"
     fill="#cc291f"
     d="m 50.109558,14.565428 c -10.800091,0 -19.525589,2.439239 -19.525589,5.420531 v 10.841063 c 0,2.981292 8.725498,5.420531 19.525589,5.420531 10.800091,0 19.525589,-2.439239 19.525589,-5.420531 V 19.985959 c 0,-2.981292 -8.725498,-5.420531 -19.525589,-5.420531 z"
     style="stroke-width:0.454662" />
  <path
     id="path4"
     fill="#e5e5e5"
     d="m 47.668859,25.372612 c -1.708488,-0.06775 -3.355961,-0.169391 -4.881397,-0.338783 v 10.841063 c 1.525436,0.169391 3.172909,0.304905 4.881397,0.338783 z"
     style="stroke-width:0.454662" />
  <path
     id="path6"
     fill="#e5e5e5"
     d="m 66.584275,22.899495 c -1.159332,0.508174 -2.623752,0.948593 -4.271224,1.321255 v 10.841062 c 1.647472,-0.372661 3.111892,-0.813079 4.271224,-1.321254 z"
     style="stroke-width:0.454662" />
  <path
     id="path8"
     fill="#e5e5e5"
     d="m 33.634842,22.899495 c 1.159332,0.508174 2.62375,0.948593 4.271223,1.321255 v 10.841062 c -1.647473,-0.372661 -3.111891,-0.813079 -4.271223,-1.321254 z"
     style="stroke-width:0.454662" />
  <path
     id="path10"
     fill="#e5e5e5"
     d="m 57.431655,24.99995 c -1.525438,0.169392 -3.172909,0.304906 -4.881399,0.338784 v 10.841063 c 1.70849,-0.06776 3.355961,-0.169392 4.881399,-0.338783 z"
     style="stroke-width:0.454662" />
  <path
     id="path12"
     fill="#ffcc00"
     d="m 62.191016,35.09569 c -0.915262,-0.745322 -3.844099,-4.946234 -4.759361,-7.792013 -0.97628,3.286197 -4.881399,8.87612 -4.881399,8.87612 3.600031,-0.101635 6.894975,-0.508174 9.64076,-1.084107 z"
     style="stroke-width:0.454662" />
  <path
     id="path14"
     fill="#2d3134"
     d="m 62.191016,35.09569 c -1.708489,0 -4.088169,-2.439238 -4.759361,-6.674029 -0.366106,7.012813 -4.820381,7.825892 -4.881399,7.792014 3.600031,-0.135513 6.894975,-0.542052 9.64076,-1.117985 z"
     style="stroke-width:0.454662" />
  <path
     id="path16"
     opacity="0.2"
     d="m 50.109558,25.40649 c -10.800091,0 -19.525589,-2.439238 -19.525589,-5.420531 v 10.841063 c 0,2.981292 8.725498,5.420531 19.525589,5.420531 10.800091,0 19.525589,-2.439239 19.525589,-5.420531 V 19.985959 c 0,2.981293 -8.725498,5.420531 -19.525589,5.420531 z"
     style="stroke-width:0.454662" />
  <path
     id="path18"
     opacity="0.2"
     d="m 66.584275,23.238278 c -1.159332,0.508175 -2.623752,0.948593 -4.271224,1.321254 -1.464419,0.338783 -3.11189,0.60981 -4.881396,0.779202 -1.525438,0.169391 -3.172909,0.304905 -4.881399,0.338783 -0.793227,0.06775 -1.586453,0.06775 -2.440698,0.06775 -0.854245,0 -1.647471,0 -2.440699,-0.03388 -1.708488,-0.06775 -3.355961,-0.16939 -4.881397,-0.338782 -1.769507,-0.203267 -3.416978,-0.474293 -4.881397,-0.779198 -1.647473,-0.372662 -3.111891,-0.813081 -4.271223,-1.321255 -1.952559,-0.846958 -3.050873,-1.82943 -3.050873,-2.913536 v 2.0327 c 0,0.474296 0.24407,0.914714 0.610174,1.355133 0.610175,0.643688 2.440699,0.40654 2.440699,-0.338783 v 0.880836 c 0,0.677567 0.610174,1.287377 1.647471,1.62616 0.06102,0 0.06102,0.03388 0.122035,0.03388 1.098315,0.338783 2.501717,-0.101635 2.501717,-0.81308 v 0.542053 c 0,0.575932 0.671192,1.117985 1.708488,1.287376 h 0.06102 c 1.525436,0.271025 3.11189,-0.372663 3.11189,-1.287377 v 0.609809 c 0,0.677567 0.915262,1.253498 2.074594,1.321255 h 0.06102 c 1.464419,0.101634 2.745786,-0.508175 2.745786,-1.321255 v 0.135514 c 0,0.745323 1.098314,1.355132 2.440698,1.355132 1.342384,0 0,0 0,0 1.342384,0 2.440698,-0.609809 2.440698,-1.355132 v -0.169393 c 0,0.813079 1.281368,1.456768 2.745787,1.321255 h 0.06102 c 1.220349,-0.101636 2.074594,-0.643688 2.074594,-1.321255 v -0.609812 c 0,0.914715 1.586455,1.558402 3.111891,1.287376 h 0.06102 c 1.037298,-0.169392 1.70849,-0.711445 1.70849,-1.287376 v -0.542054 c 0,0.711445 1.403401,1.185741 2.501716,0.813081 0.06101,0 0.06101,-0.03388 0.122034,-0.03388 1.037298,-0.338781 1.647473,-0.948591 1.647473,-1.626158 v -0.880829 c 0,0.745323 1.830523,0.982471 2.440698,0.338783 0.427123,-0.440418 0.610175,-0.880836 0.610175,-1.355133 v -2.032699 c 0,1.084106 -1.098314,2.066577 -3.050873,2.913535 z"
     style="stroke-width:0.454662" />
  <path
     id="path20"
     fill="#cc291f"
     d="M 67.316483,17.445086 50.109558,9.1448966 32.902632,17.445086 c -1.464419,0.745323 -2.318663,1.626158 -2.318663,2.540873 0,2.981293 8.725498,5.420531 19.525589,5.420531 10.800091,0 19.525589,-2.439238 19.525589,-5.420531 0,-0.914715 -0.854244,-1.79555 -2.318664,-2.540873 z"
     style="stroke-width:0.454662" />
  <path
     id="path22"
     fill="#e5e5e5"
     d="m 66.584275,22.899495 v 0.135513 c 0,0.745323 1.830523,0.982471 2.440698,0.338783 0.427122,-0.440418 0.610174,-0.880836 0.610174,-1.355133 v -2.032699 c 0,1.084106 -1.098314,2.066577 -3.050872,2.913536 z"
     style="stroke-width:0.454662" />
  <path
     id="path24"
     fill="#e5e5e5"
     d="m 57.431655,24.99995 v 0.304906 c 0,0.914714 1.586454,1.558402 3.11189,1.287376 h 0.06102 c 1.037298,-0.169392 1.70849,-0.711445 1.70849,-1.287376 V 24.22075 c -1.46442,0.338782 -3.111891,0.57593 -4.881397,0.7792 z"
     style="stroke-width:0.454662" />
  <path
     id="path26"
     fill="#e5e5e5"
     d="m 50.109558,25.40649 c -0.854245,0 -1.647471,0 -2.440699,-0.03388 v 0.711444 c 0,0.745324 1.098314,1.355133 2.440699,1.355133 1.342384,0 0,0 0,0 1.342384,0 2.440698,-0.609809 2.440698,-1.355133 V 25.37261 c -0.793227,0.03388 -1.586453,0.03388 -2.440698,0.03388 z"
     style="stroke-width:0.454662" />
  <path
     id="path28"
     fill="#cc291f"
     d="m 42.787462,24.99995 v 0.914716 c 0,0.677566 0.915262,1.253497 2.074594,1.321254 h 0.06102 c 1.464419,0.101635 2.745786,-0.508175 2.745786,-1.321254 v -0.542054 c -1.708489,-0.06775 -3.355961,-0.203269 -4.881398,-0.372662 z"
     style="stroke-width:0.454662" />
  <path
     id="path30"
     fill="#cc291f"
     d="m 62.313051,24.22075 v 0.542052 c 0,0.711445 1.403402,1.185742 2.501717,0.81308 0.06101,0 0.06101,-0.03388 0.122035,-0.03388 1.037296,-0.338782 1.647472,-0.948591 1.647472,-1.626158 v -1.01635 c -1.159332,0.508175 -2.623752,0.948594 -4.271224,1.321254 z"
     style="stroke-width:0.454662" />
  <path
     id="path32"
     fill="#e5e5e5"
     d="m 33.634842,22.899495 v 0.135513 c 0,0.745323 -1.830524,0.982471 -2.440699,0.338783 -0.427122,-0.440418 -0.610174,-0.880836 -0.610174,-1.355133 v -2.032699 c 0,1.084106 1.098314,2.066577 3.050873,2.913536 z"
     style="stroke-width:0.454662" />
  <path
     id="path34"
     fill="#e5e5e5"
     d="m 42.787462,24.99995 v 0.304906 c 0,0.914714 -1.586454,1.558402 -3.111891,1.287376 h -0.06102 c -1.0373,-0.169392 -1.708492,-0.711445 -1.708492,-1.287376 V 24.22075 c 1.464419,0.338782 3.111891,0.57593 4.881397,0.7792 z"
     style="stroke-width:0.454662" />
  <path
     id="path36"
     fill="#cc291f"
     d="m 37.906065,24.22075 v 0.542052 c 0,0.711445 -1.403402,1.185742 -2.501717,0.81308 -0.06102,0 -0.06102,-0.03388 -0.122035,-0.03388 -1.037297,-0.338783 -1.647471,-0.948592 -1.647471,-1.626159 v -1.01635 c 1.159332,0.508175 2.62375,0.948593 4.271223,1.321255 z"
     style="stroke-width:0.454662" />
  <path
     id="path38"
     fill="#cc291f"
     d="m 52.550256,25.372612 v 0.542054 c 0,0.813079 1.281367,1.456767 2.745787,1.321254 h 0.06102 c 1.220349,-0.101635 2.074594,-0.643688 2.074594,-1.321254 V 24.99995 c -1.525437,0.169392 -3.172909,0.304906 -4.881398,0.372662 z"
     style="stroke-width:0.454662" />
  <path
     id="path40"
     opacity="0.1"
     d="m 66.584275,22.899495 c -1.159332,0.508174 -2.623752,0.948593 -4.271224,1.321255 -1.464419,0.338782 -3.11189,0.609808 -4.881396,0.7792 -1.525438,0.169392 -3.172909,0.304906 -4.881399,0.338784 -0.793227,0.06775 -1.586453,0.06775 -2.440698,0.06775 -0.854245,0 -1.647471,0 -2.440699,-0.03388 -1.708488,-0.06775 -3.355961,-0.16939 -4.881397,-0.338782 -1.769507,-0.203269 -3.416978,-0.474296 -4.881397,-0.779201 -1.647473,-0.372661 -3.111891,-0.81308 -4.271223,-1.321254 -1.952559,-0.846959 -3.050873,-1.82943 -3.050873,-2.913536 v 2.032699 c 0,0.474296 0.24407,0.914715 0.610174,1.355134 0.610175,0.643688 2.440699,0.406539 2.440699,-0.338784 v 0.880836 c 0,0.677567 0.610174,1.287377 1.647471,1.62616 0.06102,0 0.06102,0.03388 0.122035,0.03388 1.098315,0.338783 2.501717,-0.101635 2.501717,-0.81308 v 0.542053 c 0,0.575932 0.671192,1.117985 1.708488,1.287377 h 0.06102 c 1.525436,0.271024 3.11189,-0.372663 3.11189,-1.287378 v 0.60981 c 0,0.677567 0.915262,1.253498 2.074594,1.321255 h 0.06102 c 1.464419,0.101635 2.745786,-0.508176 2.745786,-1.321255 v 0.135513 c 0,0.745323 1.098314,1.355134 2.440698,1.355134 1.342384,0 0,0 0,0 1.342384,0 2.440698,-0.609811 2.440698,-1.355134 V 25.91466 c 0,0.813079 1.281368,1.456768 2.745787,1.321255 h 0.06102 c 1.220349,-0.101636 2.074594,-0.643689 2.074594,-1.321255 v -0.609809 c 0,0.914714 1.586455,1.558401 3.111891,1.287375 h 0.06102 c 1.037298,-0.169392 1.70849,-0.711446 1.70849,-1.287377 v -0.542054 c 0,0.711445 1.403401,1.185742 2.501716,0.81308 0.06101,0 0.06101,-0.03388 0.122034,-0.03388 1.037298,-0.338782 1.647473,-0.948591 1.647473,-1.626157 V 23.035 c 0,0.745323 1.830523,0.98247 2.440698,0.338783 0.427123,-0.440418 0.610175,-0.880836 0.610175,-1.355133 v -2.032699 c 0,1.084107 -1.098314,2.066578 -3.050873,2.913535 z"
     style="stroke-width:0.454662" />
  <g
     id="g52"
     fill="#e5e5e5"
     transform="matrix(0.61017468,0,0,0.33878322,30.583969,3.724365)">
    <path
       id="path42"
       d="m 59,56.6 c 3.2,-2.5 5,-5.4 5,-8.6 L 32,16 Z" />
    <path
       id="path44"
       d="m 44,62.8 c 2.9,-0.6 5.6,-1.4 8,-2.3 L 32,16 Z" />
    <path
       id="path46"
       d="m 12,60.5 c 2.4,1 5.1,1.8 8,2.3 L 32,16 Z" />
    <path
       id="path48"
       d="M 5,56.6 32,16 0,48 c 0,3.2 1.8,6.1 5,8.6 z" />
    <path
       id="path50"
       d="m 28,63.9 c 1.3,0.1 2.6,0.1 4,0.1 1.4,0 2.7,0 4,-0.1 L 32,16 Z" />
  </g>
  <path
     id="path54"
     fill="#825012"
     d="m 50.109558,9.8224633 c -0.366105,0 -0.610175,-0.1355136 -0.610175,-0.3387834 V 4.0631484 c 0,-0.2032697 0.24407,-0.3387834 0.610175,-0.3387834 0.366105,0 0.610175,0.1355137 0.610175,0.3387834 v 5.4205315 c 0,0.2032698 -0.24407,0.3387834 -0.610175,0.3387834 z"
     style="stroke-width:0.454662" />
  <path
     id="path56"
     fill="#ffcc00"
     d="M 50.022586,3.8969584 V 6.6072242 L 57.594616,9.31749 55.70161,7.2847904 57.594616,6.6072242 Z"
     style="stroke-width:0.400413" />
</svg>
