<?xml version="1.0" encoding="UTF-8" standalone="no"?>
<svg
   height="196"
   width="196"
   version="1.1"
   x="0px"
   y="0px"
   viewBox="0 0 196 196"
   enable-background="new 0 0 1000 1000"
   xml:space="preserve"
   id="svg16"
   sodipodi:docname="ranking.svg"
   inkscape:version="1.1 (c68e22c387, 2021-05-23)"
   xmlns:inkscape="http://www.inkscape.org/namespaces/inkscape"
   xmlns:sodipodi="http://sodipodi.sourceforge.net/DTD/sodipodi-0.dtd"
   xmlns="http://www.w3.org/2000/svg"
   xmlns:svg="http://www.w3.org/2000/svg"
   xmlns:rdf="http://www.w3.org/1999/02/22-rdf-syntax-ns#"
   xmlns:cc="http://creativecommons.org/ns#"
   xmlns:dc="http://purl.org/dc/elements/1.1/"><defs
   id="defs20" /><sodipodi:namedview
   fit-margin-bottom="0"
   fit-margin-right="0"
   fit-margin-left="0"
   fit-margin-top="0"
   inkscape:document-rotation="0"
   pagecolor="#ffffff"
   bordercolor="#666666"
   borderopacity="1"
   objecttolerance="10"
   gridtolerance="10"
   guidetolerance="10"
   inkscape:pageopacity="0"
   inkscape:pageshadow="2"
   inkscape:window-width="1920"
   inkscape:window-height="1020"
   id="namedview18"
   showgrid="false"
   inkscape:zoom="2.4267905"
   inkscape:cx="74.790139"
   inkscape:cy="104.66499"
   inkscape:window-x="0"
   inkscape:window-y="33"
   inkscape:window-maximized="1"
   inkscape:current-layer="svg16"
   inkscape:pagecheckerboard="0" />
<metadata
   id="metadata2"> Svg Vector Icons : http://www.onlinewebfonts.com/icon <rdf:RDF><cc:Work
     rdf:about=""><dc:format>image/svg+xml</dc:format><dc:type
       rdf:resource="http://purl.org/dc/dcmitype/StillImage" /><dc:title /></cc:Work></rdf:RDF></metadata>
<path
   d="m 93.002,14.434003 -5.194,10.438 -11.418,1.666 c -6.32,0.882 -11.514,1.666 -11.612,1.716 -0.05,0.098 3.626,3.822 8.232,8.38 l 8.38,8.28 -1.96,11.27 c -1.078,6.174 -1.862,11.318 -1.764,11.416 0.098,0.098 4.754,-2.204 10.388,-5.096 5.586,-2.94 10.338,-5.292 10.534,-5.194 0.246,0.05 4.802,2.45 10.24,5.292 5.39,2.842 9.898,5.096 10.044,4.95 0.148,-0.098 -0.636,-5.292 -1.716,-11.418 l -2.008,-11.22 8.476,-8.184 c 4.606,-4.508 8.33,-8.282 8.184,-8.378 -0.146,-0.148 -5.39,-0.932 -11.614,-1.814 l -11.416,-1.616 -5.096,-10.486 C 100.84,8.704003 98.488,4.0000025 98.39,4.0000025 98.294,3.9960025 95.894,8.700003 93.002,14.434003 Z m 8.134,12.494 c 1.714,3.43 2.744,4.998 3.43,5.194 0.588,0.098 3.184,0.49 5.83,0.834 2.596,0.342 4.754,0.784 4.754,0.98 0,0.196 -1.862,2.106 -4.166,4.214 l -4.116,3.87 0.98,5.536 c 0.54,3.038 0.882,5.636 0.734,5.782 -0.098,0.146 -2.45,-0.932 -5.194,-2.352 l -4.998,-2.596 -5.144,2.596 c -2.792,1.42 -5.194,2.548 -5.292,2.45 -0.05,-0.098 0.294,-2.744 0.834,-5.83 l 0.98,-5.636 -4.264,-4.066 c -2.352,-2.254 -4.214,-4.166 -4.116,-4.214 0.098,-0.098 2.302,-0.442 4.85,-0.734 7.35,-0.98 6.714,-0.54 9.358,-6.272 1.322,-2.792 2.548,-4.998 2.792,-4.85 0.2,0.098 1.426,2.4 2.748,5.094 z"
   id="path4"
   style="stroke-width:0.02" /><path
   d="m 66.64,133.846 v 60.76 H 98 129.36 V 133.846 73.086003 H 98 66.64 Z m 54.88,0 v 52.92 H 98 74.48 V 133.846 80.926003 H 98 121.52 Z"
   id="path6"
   style="stroke-width:0.02" /><path
   d="M 2.03016,161.07331 2,194.606 h 31.36 31.36 l 0.0302,-33.53269 v -50.96 h -31.36 -31.36 z m 54.88,0 -0.0302,25.69269 h -23.52 -23.52 l 0.0302,-25.69269 v -43.12 h 23.52 23.52 z"
   id="path8"
   style="stroke-width:0.02"
   sodipodi:nodetypes="cccccccccccccccccc" /><path
   d="M 131.15797,182.07338 131.28,194.606 H 162.64 194 l -0.12203,-12.53262 v -50.96 h -31.36 -31.36 z m 54.88,0 0.12203,4.69262 h -23.52 -23.52 l -0.12203,-4.69262 v -43.12 h 23.52 23.52 z"
   id="path10"
   style="stroke-width:0.02"
   sodipodi:nodetypes="cccccccccccccccccc" />
</svg>
