<?xml version="1.0" encoding="UTF-8" standalone="no"?>
<svg
   width="100"
   height="58"
   viewBox="0 0 26.458334 15.345833"
   version="1.1"
   id="svg3242"
   inkscape:version="1.1 (c68e22c387, 2021-05-23)"
   sodipodi:docname="tree.svg"
   xmlns:inkscape="http://www.inkscape.org/namespaces/inkscape"
   xmlns:sodipodi="http://sodipodi.sourceforge.net/DTD/sodipodi-0.dtd"
   xmlns="http://www.w3.org/2000/svg"
   xmlns:svg="http://www.w3.org/2000/svg"
   xmlns:rdf="http://www.w3.org/1999/02/22-rdf-syntax-ns#"
   xmlns:cc="http://creativecommons.org/ns#"
   xmlns:dc="http://purl.org/dc/elements/1.1/">
  <defs
     id="defs3236" />
  <sodipodi:namedview
     id="base"
     pagecolor="#ffffff"
     bordercolor="#666666"
     borderopacity="1.0"
     inkscape:pageopacity="0.0"
     inkscape:pageshadow="2"
     inkscape:zoom="11.313709"
     inkscape:cx="38.404735"
     inkscape:cy="36.239221"
     inkscape:document-units="mm"
     inkscape:current-layer="layer1"
     inkscape:document-rotation="0"
     showgrid="false"
     fit-margin-top="0"
     fit-margin-left="0"
     fit-margin-right="0"
     fit-margin-bottom="0"
     inkscape:window-width="1920"
     inkscape:window-height="1020"
     inkscape:window-x="0"
     inkscape:window-y="33"
     inkscape:window-maximized="1"
     units="px"
     inkscape:pagecheckerboard="0" />
  <metadata
     id="metadata3239">
    <rdf:RDF>
      <cc:Work
         rdf:about="">
        <dc:format>image/svg+xml</dc:format>
        <dc:type
           rdf:resource="http://purl.org/dc/dcmitype/StillImage" />
        <dc:title />
      </cc:Work>
    </rdf:RDF>
  </metadata>
  <g
     inkscape:label="Calque 1"
     inkscape:groupmode="layer"
     id="layer1"
     transform="translate(-123.59821,-68.671313)">
    <g
       id="g2920"
       transform="matrix(0.26454738,0,0,0.26686026,110.57425,-0.2303104)">
      <g
         transform="translate(0.76334)"
         id="g2914">
        <path
           id="path546-3"
           d="m 98.47332,308.19681 v 7.5 l -50.000001,-25 v -7.5 z"
           fill="#bb8d5d" />
        <path
           id="path548-6"
           d="m 98.47332,315.69681 v -7.5 l 50,-25 v 7.5 z"
           fill="#9e7758" />
      </g>
      <path
         id="path208"
         d="m 49.23666,283.19681 50,-25 50,25 -50,25 z"
         fill="#8bb54a" />
    </g>
    <g
       transform="translate(2.3372438,1.8316703)"
       id="g38">
      <path
         id="path2956"
         d="m 129.50449,76.523483 c 0.28231,-0.132292 0.62627,-0.198438 1.03187,-0.198438 0.40561,0 0.74957,0.06615 1.03188,0.198438 0.28204,0.12356 0.42333,0.277812 0.42333,0.463021 0,0.185208 -0.14102,0.343958 -0.42333,0.47625 -0.28231,0.12356 -0.62627,0.185208 -1.03188,0.185208 -0.4056,0 -0.74956,-0.06165 -1.03187,-0.185208 -0.28205,-0.132292 -0.42334,-0.291042 -0.42334,-0.47625 0,-0.185209 0.14103,-0.339461 0.42334,-0.463021 z"
         enable-background="new    "
         opacity="0.051"
         style="stroke-width:0.264583" />
      <path
         id="path2962"
         d="m 130.25855,73.533691 c 0.0794,-0.07938 0.17171,-0.119062 0.27781,-0.119062 0.1061,0 0.19844,0.03969 0.27781,0.119062 0.0794,0.07937 0.11907,0.171979 0.11907,0.277813 v 2.923646 l -0.11907,0.185208 -0.27781,0.0926 c -0.10583,0 -0.19844,-0.03096 -0.27781,-0.0926 -0.0794,-0.05292 -0.11906,-0.114565 -0.11906,-0.185208 v -2.923646 c 0,-0.105834 0.0397,-0.198438 0.11906,-0.277813 z"
         fill="#bb8d5d"
         style="stroke-width:0.264583" />
      <path
         id="path2964"
         d="m 129.08115,70.319004 c 0,-0.308769 0.13679,-0.577586 0.41011,-0.806979 0.27331,-0.220398 0.59981,-0.33073 0.97896,-0.33073 h 0.14552 c 0.37041,0 0.69241,0.110332 0.96573,0.33073 0.27331,0.229393 0.4101,0.49821 0.4101,0.806979 v 3.81 c 0,0.3175 -0.13679,0.582083 -0.4101,0.79375 -0.27332,0.229393 -0.59532,0.343958 -0.96573,0.343958 h -0.14552 c -0.37942,0 -0.70565,-0.114565 -0.97896,-0.343958 -0.27332,-0.211667 -0.41011,-0.47625 -0.41011,-0.79375 z"
         fill="#74973e"
         style="stroke-width:0.264583" />
    </g>
    <path
       style="stroke-width:0.210009"
       opacity="0.051"
       enable-background="new    "
       d="m 141.99432,76.642821 c 0.27369,-0.08597 0.60716,-0.128954 1.00038,-0.128954 0.39324,0 0.7267,0.04299 1.0004,0.128954 0.27343,0.08029 0.41041,0.180535 0.41041,0.300891 0,0.120357 -0.13672,0.22352 -0.41041,0.309489 -0.2737,0.08029 -0.60716,0.120356 -1.0004,0.120356 -0.39322,0 -0.72669,-0.04006 -1.00038,-0.120356 -0.27345,-0.08597 -0.41042,-0.189132 -0.41042,-0.309489 0,-0.120356 0.13672,-0.220596 0.41042,-0.300891 z"
       id="path2972" />
    <path
       style="stroke-width:0.210009"
       fill="#bb8d5d"
       d="m 142.72537,74.699923 c 0.077,-0.05159 0.16647,-0.07737 0.26933,-0.07737 0.10287,0 0.19239,0.02579 0.26934,0.07737 0.077,0.05158 0.11543,0.111759 0.11543,0.180535 v 1.899914 l -0.11543,0.120356 -0.26934,0.06017 c -0.1026,0 -0.19238,-0.02012 -0.26933,-0.06017 -0.077,-0.03439 -0.11543,-0.07445 -0.11543,-0.120356 v -1.899914 c 0,-0.06878 0.0385,-0.128954 0.11543,-0.180535 z"
       id="path2974" />
    <path
       style="stroke-width:0.177138"
       fill="#74973e"
       d="m 144.58507,75.785805 c -1.02605,0.256884 -2.0308,0.263 -3.014,0.01835 -0.18802,-0.05309 -0.26933,-0.128442 -0.24368,-0.226303 l 1.55189,-2.941931 c 0.11132,-0.08159 0.22675,-0.08159 0.34654,0 l 1.53906,2.923583 c 0.0254,0.110093 -0.0343,0.185568 -0.17981,0.226301 z"
       id="path2976" />
    <g
       transform="translate(0.8126507,-0.1445558)"
       id="g43">
      <path
         style="stroke-width:0.264583"
         opacity="0.051"
         enable-background="new    "
         d="m 135.19414,77.920938 c 0.28231,-0.132292 0.62627,-0.198438 1.03187,-0.198438 0.40561,0 0.74957,0.06615 1.03188,0.198438 0.28204,0.12356 0.42333,0.277812 0.42333,0.463021 0,0.185208 -0.14102,0.343958 -0.42333,0.47625 -0.28231,0.12356 -0.62627,0.185208 -1.03188,0.185208 -0.4056,0 -0.74956,-0.06165 -1.03187,-0.185208 -0.28205,-0.132292 -0.42334,-0.291042 -0.42334,-0.47625 0,-0.185209 0.14103,-0.339461 0.42334,-0.463021 z"
         id="path2972-3" />
      <path
         style="stroke-width:0.264583"
         fill="#bb8d5d"
         d="m 135.9482,74.931146 c 0.0794,-0.07938 0.17171,-0.119062 0.27781,-0.119062 0.1061,0 0.19844,0.03969 0.27781,0.119062 0.0794,0.07937 0.11907,0.171979 0.11907,0.277813 v 2.923646 l -0.11907,0.185208 -0.27781,0.0926 c -0.10583,0 -0.19844,-0.03096 -0.27781,-0.0926 -0.0794,-0.05292 -0.11906,-0.114565 -0.11906,-0.185208 v -2.923646 c 0,-0.105834 0.0397,-0.198438 0.11906,-0.277813 z"
         id="path2974-6" />
      <path
         style="stroke-width:0.264583"
         fill="#74973e"
         d="m 137.86643,76.478959 c -1.05834,0.555625 -2.09471,0.568854 -3.10886,0.03969 -0.19394,-0.114829 -0.27781,-0.277812 -0.25135,-0.489479 l 1.60073,-6.363229 c 0.11483,-0.176477 0.23389,-0.176477 0.35745,0 l 1.5875,6.323542 c 0.0262,0.238125 -0.0354,0.401372 -0.18547,0.489479 z"
         id="path2976-7" />
    </g>
  </g>
</svg>
