<?xml version="1.0" encoding="UTF-8" standalone="no"?>
<svg
   xmlns:dc="http://purl.org/dc/elements/1.1/"
   xmlns:cc="http://creativecommons.org/ns#"
   xmlns:rdf="http://www.w3.org/1999/02/22-rdf-syntax-ns#"
   xmlns:svg="http://www.w3.org/2000/svg"
   xmlns="http://www.w3.org/2000/svg"
   xmlns:sodipodi="http://sodipodi.sourceforge.net/DTD/sodipodi-0.dtd"
   xmlns:inkscape="http://www.inkscape.org/namespaces/inkscape"
   contentScriptType="application/ecmascript"
   contentStyleType="text/css"
   height="95"
   preserveAspectRatio="none"
   version="1.1"
   viewBox="0 0 255 95"
   width="255"
   zoomAndPan="magnify"
   id="svg114"
   sodipodi:docname="pointsdata.svg"
   inkscape:version="1.0.1 (3bc2e813f5, 2020-09-07)">
  <metadata
     id="metadata118">
    <rdf:RDF>
      <cc:Work
         rdf:about="">
        <dc:format>image/svg+xml</dc:format>
        <dc:type
           rdf:resource="http://purl.org/dc/dcmitype/StillImage" />
        <dc:title></dc:title>
      </cc:Work>
    </rdf:RDF>
  </metadata>
  <sodipodi:namedview
     pagecolor="#ffffff"
     bordercolor="#666666"
     borderopacity="1"
     objecttolerance="10"
     gridtolerance="10"
     guidetolerance="10"
     inkscape:pageopacity="0"
     inkscape:pageshadow="2"
     inkscape:window-width="1920"
     inkscape:window-height="1025"
     id="namedview116"
     showgrid="false"
     inkscape:zoom="1.8384776"
     inkscape:cx="177.97014"
     inkscape:cy="193.08"
     inkscape:window-x="0"
     inkscape:window-y="28"
     inkscape:window-maximized="1"
     inkscape:current-layer="svg114" />
  <defs
     id="defs11">
    <filter
       height="3"
       id="f1dwo2qy975gqo"
       width="3"
       x="-1"
       y="-1">
      <feGaussianBlur
         result="blurOut"
         stdDeviation="2.0"
         id="feGaussianBlur2" />
      <feColorMatrix
         in="blurOut"
         result="blurOut2"
         type="matrix"
         values="0 0 0 0 0 0 0 0 0 0 0 0 0 0 0 0 0 0 .4 0"
         id="feColorMatrix4" />
      <feOffset
         dx="4.0"
         dy="4.0"
         in="blurOut2"
         result="blurOut3"
         id="feOffset6" />
      <feBlend
         in="SourceGraphic"
         in2="blurOut3"
         mode="normal"
         id="feBlend8" />
    </filter>
  </defs>
  <rect
     codeLine="17"
     fill="#fefece"
     filter="url(#f1dwo2qy975gqo)"
     height="86.414101"
     id="PointsData"
     style="stroke:#a80036;stroke-width:1.5"
     width="248"
     x="3.6786473"
     y="4.464994" />
  <circle
     cx="91.428642"
     cy="20.464994"
     fill="#b4a7e5"
     style="stroke:#a80036;stroke-width:1"
     id="ellipse84"
     r="11" />
  <path
     d="m 92.381747,17.246294 h 1.7188 c 0.3906,0 0.5781,-0.0313 0.7031,-0.1094 0.2656,-0.1563 0.4063,-0.4375 0.4063,-0.7344 0,-0.2656 -0.1094,-0.5312 -0.3438,-0.7031 -0.1719,-0.1094 -0.3125,-0.1406 -0.7656,-0.1406 h -5.1406 c -0.4375,0 -0.5625,0.0156 -0.7188,0.1093 -0.25,0.1563 -0.4062,0.4532 -0.4062,0.7344 0,0.2813 0.1406,0.5313 0.3593,0.7031 0.1563,0.1094 0.3438,0.1407 0.7657,0.1407 h 1.7187 v 6.5156 h -1.7187 c -0.4375,0 -0.5625,0.0156 -0.7188,0.125 -0.25,0.1562 -0.4062,0.4375 -0.4062,0.7344 0,0.25 0.1406,0.5156 0.3593,0.6718 0.1563,0.125 0.3594,0.1719 0.7657,0.1719 h 5.1406 c 0.75,0 1.1094,-0.2812 1.1094,-0.8437 0,-0.2813 -0.1094,-0.5313 -0.3438,-0.7032 -0.1719,-0.125 -0.3125,-0.1562 -0.7656,-0.1562 h -1.7188 z"
     fill="#000000"
     id="path86" />
  <text
     fill="#000000"
     font-family="sans-serif"
     font-size="12px"
     font-style="italic"
     lengthAdjust="spacingAndGlyphs"
     textLength="64"
     x="359.75"
     y="199.6543"
     id="text88"
     transform="translate(-247.82136,-175.03501)">PointsData</text>
  <line
     style="stroke:#a80036;stroke-width:1.5"
     x1="4.6786475"
     x2="250.67865"
     y1="36.464993"
     y2="36.464993"
     id="line90" />
  <line
     style="stroke:#a80036;stroke-width:1.5"
     x1="4.6786475"
     x2="250.67865"
     y1="44.464993"
     y2="44.464993"
     id="line92" />
  <circle
     cx="14.678648"
     cy="55.464993"
     fill="#84be84"
     style="stroke:#038048;stroke-width:1"
     id="ellipse94"
     r="3" />
  <text
     fill="#000000"
     font-family="sans-serif"
     font-size="11px"
     lengthAdjust="spacingAndGlyphs"
     textLength="156"
     x="271.5"
     y="233.7104"
     id="text96"
     transform="translate(-247.82136,-175.03501)">getPointsData(): PointData[]</text>
  <circle
     cx="14.678648"
     cy="68.269699"
     fill="#84be84"
     style="stroke:#038048;stroke-width:1"
     id="ellipse98"
     r="3" />
  <text
     fill="#000000"
     font-family="sans-serif"
     font-size="11px"
     lengthAdjust="spacingAndGlyphs"
     textLength="222"
     x="271.5"
     y="246.51511"
     id="text100"
     transform="translate(-247.82136,-175.03501)">getCurrentPosition(): [number, number]</text>
  <circle
     cx="14.678648"
     cy="81.074402"
     fill="#84be84"
     style="stroke:#038048;stroke-width:1"
     id="ellipse102"
     r="3" />
  <text
     fill="#000000"
     font-family="sans-serif"
     font-size="11px"
     lengthAdjust="spacingAndGlyphs"
     textLength="138"
     x="271.5"
     y="259.31979"
     id="text104"
     transform="translate(-247.82136,-175.03501)">getLastButton(): number</text>
</svg>
