<?xml version="1.0" encoding="UTF-8" standalone="no"?>
<svg
   xmlns:dc="http://purl.org/dc/elements/1.1/"
   xmlns:cc="http://creativecommons.org/ns#"
   xmlns:rdf="http://www.w3.org/1999/02/22-rdf-syntax-ns#"
   xmlns:svg="http://www.w3.org/2000/svg"
   xmlns="http://www.w3.org/2000/svg"
   xmlns:sodipodi="http://sodipodi.sourceforge.net/DTD/sodipodi-0.dtd"
   xmlns:inkscape="http://www.inkscape.org/namespaces/inkscape"
   contentScriptType="application/ecmascript"
   contentStyleType="text/css"
   height="340"
   preserveAspectRatio="none"
   version="1.1"
   viewBox="0 0 219 340"
   width="219"
   zoomAndPan="magnify"
   id="svg122"
   sodipodi:docname="foo2.svg"
   inkscape:version="1.0.1 (3bc2e813f5, 2020-09-07)">
  <metadata
     id="metadata126">
    <rdf:RDF>
      <cc:Work
         rdf:about="">
        <dc:format>image/svg+xml</dc:format>
        <dc:type
           rdf:resource="http://purl.org/dc/dcmitype/StillImage" />
        <dc:title></dc:title>
      </cc:Work>
    </rdf:RDF>
  </metadata>
  <sodipodi:namedview
     pagecolor="#ffffff"
     bordercolor="#666666"
     borderopacity="1"
     objecttolerance="10"
     gridtolerance="10"
     guidetolerance="10"
     inkscape:pageopacity="0"
     inkscape:pageshadow="2"
     inkscape:window-width="1920"
     inkscape:window-height="1025"
     id="namedview124"
     showgrid="false"
     fit-margin-top="0"
     inkscape:zoom="1.7057654"
     inkscape:cx="317"
     inkscape:cy="242.00194"
     inkscape:window-x="0"
     inkscape:window-y="28"
     inkscape:window-maximized="1"
     inkscape:current-layer="svg122" />
  <defs
     id="defs11">
    <filter
       height="3"
       id="fpnsxvctwajq"
       width="3"
       x="-1"
       y="-1">
      <feGaussianBlur
         result="blurOut"
         stdDeviation="2.0"
         id="feGaussianBlur2" />
      <feColorMatrix
         in="blurOut"
         result="blurOut2"
         type="matrix"
         values="0 0 0 0 0 0 0 0 0 0 0 0 0 0 0 0 0 0 .4 0"
         id="feColorMatrix4" />
      <feOffset
         dx="4.0"
         dy="4.0"
         in="blurOut2"
         result="blurOut3"
         id="feOffset6" />
      <feBlend
         in="SourceGraphic"
         in2="blurOut3"
         mode="normal"
         id="feBlend8" />
    </filter>
  </defs>
  <rect
     codeLine="4"
     fill="#fefece"
     filter="url(#fpnsxvctwajq)"
     height="188.85159"
     id="PointData"
     style="stroke:#a80036;stroke-width:1.5"
     width="209"
     x="3.6238015"
     y="3.0862806" />
  <circle
     cx="74.873802"
     cy="19.086281"
     fill="#b4a7e5"
     style="stroke:#a80036;stroke-width:1"
     id="ellipse29"
     r="11" />
  <path
     d="m 75.826901,15.867581 h 1.7188 c 0.3906,0 0.5781,-0.0313 0.7031,-0.1094 0.2656,-0.1563 0.4063,-0.4375 0.4063,-0.7344 0,-0.2656 -0.1094,-0.5312 -0.3438,-0.7031 -0.1719,-0.1094 -0.3125,-0.1406 -0.7656,-0.1406 h -5.1406 c -0.4375,0 -0.5625,0.0156 -0.7188,0.1093 -0.25,0.1563 -0.4062,0.4532 -0.4062,0.7344 0,0.2813 0.1406,0.5313 0.3593,0.7031 0.1563,0.1094 0.3438,0.1407 0.7657,0.1407 h 1.7187 v 6.5156 h -1.7187 c -0.4375,0 -0.5625,0.0156 -0.7188,0.125 -0.25,0.1562 -0.4062,0.4375 -0.4062,0.7344 0,0.25 0.1406,0.5156 0.3593,0.6718 0.1563,0.125 0.3594,0.1719 0.7657,0.1719 h 5.1406 c 0.75,0 1.1094,-0.2812 1.1094,-0.8437 0,-0.2813 -0.1094,-0.5313 -0.3438,-0.7032 -0.1719,-0.125 -0.3125,-0.1562 -0.7656,-0.1562 h -1.7188 z"
     fill="#000000"
     id="path31" />
  <text
     fill="#000000"
     font-family="sans-serif"
     font-size="12px"
     font-style="italic"
     lengthAdjust="spacingAndGlyphs"
     textLength="58"
     x="98.75"
     y="148.1543"
     id="text33"
     transform="translate(-3.3761985,-124.91372)">PointData</text>
  <line
     style="stroke:#a80036;stroke-width:1.5"
     x1="4.6238012"
     x2="211.62379"
     y1="35.086281"
     y2="35.086281"
     id="line35" />
  <line
     style="stroke:#a80036;stroke-width:1.5"
     x1="4.6238012"
     x2="211.62379"
     y1="43.086281"
     y2="43.086281"
     id="line37" />
  <circle
     cx="14.623801"
     cy="54.086281"
     fill="#84be84"
     style="stroke:#038048;stroke-width:1"
     id="ellipse39"
     r="3" />
  <text
     fill="#000000"
     font-family="sans-serif"
     font-size="11px"
     lengthAdjust="spacingAndGlyphs"
     textLength="130"
     x="27"
     y="182.2104"
     id="text41"
     transform="translate(-3.3761985,-124.91372)">isAltPressed(): boolean</text>
  <circle
     cx="14.623801"
     cy="66.890984"
     fill="#84be84"
     style="stroke:#038048;stroke-width:1"
     id="ellipse43"
     r="3" />
  <text
     fill="#000000"
     font-family="sans-serif"
     font-size="11px"
     lengthAdjust="spacingAndGlyphs"
     textLength="134"
     x="27"
     y="195.01511"
     id="text45"
     transform="translate(-3.3761985,-124.91372)">isCtrlPressed(): boolean</text>
  <circle
     cx="14.623801"
     cy="79.695686"
     fill="#84be84"
     style="stroke:#038048;stroke-width:1"
     id="ellipse47"
     r="3" />
  <text
     fill="#000000"
     font-family="sans-serif"
     font-size="11px"
     lengthAdjust="spacingAndGlyphs"
     textLength="141"
     x="27"
     y="207.81979"
     id="text49"
     transform="translate(-3.3761985,-124.91372)">isShiftPressed(): boolean</text>
  <circle
     cx="14.623801"
     cy="92.500374"
     fill="#84be84"
     style="stroke:#038048;stroke-width:1"
     id="ellipse51"
     r="3" />
  <text
     fill="#000000"
     font-family="sans-serif"
     font-size="11px"
     lengthAdjust="spacingAndGlyphs"
     textLength="143"
     x="27"
     y="220.6245"
     id="text53"
     transform="translate(-3.3761985,-124.91372)">isMetaPressed(): boolean</text>
  <circle
     cx="14.623801"
     cy="105.30508"
     fill="#84be84"
     style="stroke:#038048;stroke-width:1"
     id="ellipse55"
     r="3" />
  <text
     fill="#000000"
     font-family="sans-serif"
     font-size="11px"
     lengthAdjust="spacingAndGlyphs"
     textLength="137"
     x="27"
     y="233.4292"
     id="text57"
     transform="translate(-3.3761985,-124.91372)">getSrcClientX(): number</text>
  <circle
     cx="14.623801"
     cy="118.10969"
     fill="#84be84"
     style="stroke:#038048;stroke-width:1"
     id="ellipse59"
     r="3" />
  <text
     fill="#000000"
     font-family="sans-serif"
     font-size="11px"
     lengthAdjust="spacingAndGlyphs"
     textLength="136"
     x="27"
     y="246.2339"
     id="text61"
     transform="translate(-3.3761985,-124.91372)">getSrcClientY(): number</text>
  <circle
     cx="14.623801"
     cy="130.91437"
     fill="#84be84"
     style="stroke:#038048;stroke-width:1"
     id="ellipse63"
     r="3" />
  <text
     fill="#000000"
     font-family="sans-serif"
     font-size="11px"
     lengthAdjust="spacingAndGlyphs"
     textLength="145"
     x="27"
     y="259.0386"
     id="text65"
     transform="translate(-3.3761985,-124.91372)">getSrcScreenX(): number</text>
  <circle
     cx="14.623801"
     cy="143.71909"
     fill="#84be84"
     style="stroke:#038048;stroke-width:1"
     id="ellipse67"
     r="3" />
  <text
     fill="#000000"
     font-family="sans-serif"
     font-size="11px"
     lengthAdjust="spacingAndGlyphs"
     textLength="144"
     x="27"
     y="271.84329"
     id="text69"
     transform="translate(-3.3761985,-124.91372)">getSrcScreenY(): number</text>
  <circle
     cx="14.623801"
     cy="156.52377"
     fill="#84be84"
     style="stroke:#038048;stroke-width:1"
     id="ellipse71"
     r="3" />
  <text
     fill="#000000"
     font-family="sans-serif"
     font-size="11px"
     lengthAdjust="spacingAndGlyphs"
     textLength="115"
     x="27"
     y="284.64789"
     id="text73"
     transform="translate(-3.3761985,-124.91372)">getButton(): number</text>
  <circle
     cx="14.623801"
     cy="169.32846"
     fill="#84be84"
     style="stroke:#038048;stroke-width:1"
     id="ellipse75"
     r="3" />
  <text
     fill="#000000"
     font-family="sans-serif"
     font-size="11px"
     lengthAdjust="spacingAndGlyphs"
     textLength="159"
     x="27"
     y="297.45261"
     id="text77"
     transform="translate(-3.3761985,-124.91372)">getSrcObject(): EventTarget</text>
  <circle
     cx="14.623801"
     cy="182.13318"
     fill="#84be84"
     style="stroke:#038048;stroke-width:1"
     id="ellipse79"
     r="3" />
  <text
     fill="#000000"
     font-family="sans-serif"
     font-size="11px"
     lengthAdjust="spacingAndGlyphs"
     textLength="183"
     x="27"
     y="310.25729"
     id="text81"
     transform="translate(-3.3761985,-124.91372)">getCurrentTarget(): EventTarget</text>
  <rect
     codeLine="17"
     fill="#fefece"
     filter="url(#fpnsxvctwajq)"
     height="112.0234"
     id="SrcTgtPointsData"
     style="stroke:#a80036;stroke-width:1.5"
     width="185"
     x="15.623801"
     y="222.08627" />
  <circle
     cx="52.673801"
     cy="238.08627"
     fill="#b4a7e5"
     style="stroke:#a80036;stroke-width:1"
     id="ellipse84"
     r="11" />
  <path
     d="m 53.626901,234.86758 h 1.7188 c 0.3906,0 0.5781,-0.0313 0.7031,-0.1094 0.2656,-0.1563 0.4063,-0.4375 0.4063,-0.7344 0,-0.2656 -0.1094,-0.5312 -0.3438,-0.7031 -0.1719,-0.1094 -0.3125,-0.1406 -0.7656,-0.1406 h -5.1406 c -0.4375,0 -0.5625,0.0156 -0.7188,0.1093 -0.25,0.1563 -0.4062,0.4532 -0.4062,0.7344 0,0.2813 0.1406,0.5313 0.3593,0.7031 0.1563,0.1094 0.3438,0.1407 0.7657,0.1407 h 1.7187 v 6.5156 h -1.7187 c -0.4375,0 -0.5625,0.0156 -0.7188,0.125 -0.25,0.1562 -0.4062,0.4375 -0.4062,0.7344 0,0.25 0.1406,0.5156 0.3593,0.6718 0.1563,0.125 0.3594,0.1719 0.7657,0.1719 h 5.1406 c 0.75,0 1.1094,-0.2812 1.1094,-0.8437 0,-0.2813 -0.1094,-0.5313 -0.3438,-0.7032 -0.1719,-0.125 -0.3125,-0.1562 -0.7656,-0.1562 h -1.7188 z"
     fill="#000000"
     id="path86" />
  <text
     fill="#000000"
     font-family="sans-serif"
     font-size="12px"
     font-style="italic"
     lengthAdjust="spacingAndGlyphs"
     textLength="104"
     x="74.949997"
     y="397.1543"
     id="text88"
     transform="translate(-3.3761985,-154.91372)">SrcTgtPointsData</text>
  <line
     style="stroke:#a80036;stroke-width:1.5"
     x1="16.623802"
     x2="199.62379"
     y1="254.08627"
     y2="254.08627"
     id="line90" />
  <line
     style="stroke:#a80036;stroke-width:1.5"
     x1="16.623802"
     x2="199.62379"
     y1="262.08627"
     y2="262.08627"
     id="line92" />
  <circle
     cx="26.623802"
     cy="273.08627"
     fill="#84be84"
     style="stroke:#038048;stroke-width:1"
     id="ellipse94"
     r="3" />
  <text
     fill="#000000"
     font-family="sans-serif"
     font-size="11px"
     lengthAdjust="spacingAndGlyphs"
     textLength="159"
     x="39"
     y="431.21039"
     id="text96"
     transform="translate(-3.3761985,-154.91372)">getTgtObject(): EventTarget</text>
  <circle
     cx="26.623802"
     cy="285.89096"
     fill="#84be84"
     style="stroke:#038048;stroke-width:1"
     id="ellipse98"
     r="3" />
  <text
     fill="#000000"
     font-family="sans-serif"
     font-size="11px"
     lengthAdjust="spacingAndGlyphs"
     textLength="137"
     x="39"
     y="444.01511"
     id="text100"
     transform="translate(-3.3761985,-154.91372)">getTgtClientX(): number</text>
  <circle
     cx="26.623802"
     cy="298.69568"
     fill="#84be84"
     style="stroke:#038048;stroke-width:1"
     id="ellipse102"
     r="3" />
  <text
     fill="#000000"
     font-family="sans-serif"
     font-size="11px"
     lengthAdjust="spacingAndGlyphs"
     textLength="136"
     x="39"
     y="456.81979"
     id="text104"
     transform="translate(-3.3761985,-154.91372)">getTgtClientY(): number</text>
  <circle
     cx="26.623802"
     cy="311.50037"
     fill="#84be84"
     style="stroke:#038048;stroke-width:1"
     id="ellipse106"
     r="3" />
  <text
     fill="#000000"
     font-family="sans-serif"
     font-size="11px"
     lengthAdjust="spacingAndGlyphs"
     textLength="145"
     x="39"
     y="469.62451"
     id="text108"
     transform="translate(-3.3761985,-154.91372)">getTgtScreenX(): number</text>
  <circle
     cx="26.623802"
     cy="324.30508"
     fill="#84be84"
     style="stroke:#038048;stroke-width:1"
     id="ellipse110"
     r="3" />
  <text
     fill="#000000"
     font-family="sans-serif"
     font-size="11px"
     lengthAdjust="spacingAndGlyphs"
     textLength="144"
     x="39"
     y="482.4292"
     id="text112"
     transform="translate(-3.3761985,-154.91372)">getTgtScreenY(): number</text>
  <path
     d="m 108.1238,212.37028 c 0,3.57116 0,7.08445 0,10.28786"
     fill="none"
     id="PointData-backto-SrcTgtPointsData"
     style="stroke:#a80036;stroke-width:0.509443" />
  <polygon
     fill="none"
     points="111.5,317.077 118.5,337.077 104.5001,337.077 "
     style="stroke:#a80036;stroke-width:1"
     id="polygon118"
     transform="translate(-3.3761985,-124.91372)" />
</svg>
