<?xml version="1.0" encoding="UTF-8" standalone="no"?>
<svg
   xmlns:dc="http://purl.org/dc/elements/1.1/"
   xmlns:cc="http://creativecommons.org/ns#"
   xmlns:rdf="http://www.w3.org/1999/02/22-rdf-syntax-ns#"
   xmlns:svg="http://www.w3.org/2000/svg"
   xmlns="http://www.w3.org/2000/svg"
   xmlns:sodipodi="http://sodipodi.sourceforge.net/DTD/sodipodi-0.dtd"
   xmlns:inkscape="http://www.inkscape.org/namespaces/inkscape"
   contentScriptType="application/ecmascript"
   contentStyleType="text/css"
   height="65"
   preserveAspectRatio="none"
   version="1.1"
   viewBox="0 0 119 65"
   width="119"
   zoomAndPan="magnify"
   id="svg52"
   sodipodi:docname="widgetData.svg"
   inkscape:version="1.0.1 (3bc2e813f5, 2020-09-07)">
  <metadata
     id="metadata56">
    <rdf:RDF>
      <cc:Work
         rdf:about="">
        <dc:format>image/svg+xml</dc:format>
        <dc:type
           rdf:resource="http://purl.org/dc/dcmitype/StillImage" />
        <dc:title></dc:title>
      </cc:Work>
    </rdf:RDF>
  </metadata>
  <sodipodi:namedview
     pagecolor="#ffffff"
     bordercolor="#666666"
     borderopacity="1"
     objecttolerance="10"
     gridtolerance="10"
     guidetolerance="10"
     inkscape:pageopacity="0"
     inkscape:pageshadow="2"
     inkscape:window-width="1920"
     inkscape:window-height="1025"
     id="namedview54"
     showgrid="false"
     inkscape:zoom="4.2475248"
     inkscape:cx="78.882236"
     inkscape:cy="88.454522"
     inkscape:window-x="0"
     inkscape:window-y="28"
     inkscape:window-maximized="1"
     inkscape:current-layer="svg52" />
  <defs
     id="defs11">
    <filter
       height="3"
       id="f1rhlp4klnmf1b"
       width="3"
       x="-1"
       y="-1">
      <feGaussianBlur
         result="blurOut"
         stdDeviation="2.0"
         id="feGaussianBlur2" />
      <feColorMatrix
         in="blurOut"
         result="blurOut2"
         type="matrix"
         values="0 0 0 0 0 0 0 0 0 0 0 0 0 0 0 0 0 0 .4 0"
         id="feColorMatrix4" />
      <feOffset
         dx="4.0"
         dy="4.0"
         in="blurOut2"
         result="blurOut3"
         id="feOffset6" />
      <feBlend
         in="SourceGraphic"
         in2="blurOut3"
         mode="normal"
         id="feBlend8" />
    </filter>
  </defs>
  <rect
     codeLine="4"
     fill="#fefece"
     filter="url(#f1rhlp4klnmf1b)"
     height="60.804699"
     id="WidgetData"
     style="stroke:#a80036;stroke-width:1.5"
     width="114"
     x="1.3304911"
     y="3.4518814" />
  <circle
     cx="16.33049"
     cy="19.451881"
     fill="#b4a7e5"
     style="stroke:#a80036;stroke-width:1"
     id="ellipse29"
     r="11" />
  <path
     d="m 17.283591,16.233182 h 1.7188 c 0.3906,0 0.5781,-0.0313 0.7031,-0.1094 0.2656,-0.1563 0.4063,-0.4375 0.4063,-0.7344 0,-0.2656 -0.1094,-0.5312 -0.3438,-0.7031 -0.1719,-0.1094 -0.3125,-0.1406 -0.7656,-0.1406 h -5.1406 c -0.4375,0 -0.5625,0.0156 -0.7188,0.1093 -0.25,0.1563 -0.4062,0.4532 -0.4062,0.7344 0,0.2813 0.1406,0.5313 0.3593,0.7031 0.1563,0.1094 0.3438,0.1407 0.7657,0.1407 h 1.7187 v 6.5156 h -1.7187 c -0.4375,0 -0.5625,0.0156 -0.7188,0.125 -0.25,0.1562 -0.4062,0.4375 -0.4062,0.7344 0,0.25 0.1406,0.5156 0.3593,0.6718 0.1563,0.125 0.3594,0.1719 0.7657,0.1719 h 5.1406 c 0.75,0 1.1094,-0.2812 1.1094,-0.8437 0,-0.2813 -0.1094,-0.5313 -0.3438,-0.7032 -0.1719,-0.125 -0.3125,-0.1562 -0.7656,-0.1562 h -1.7188 z"
     fill="#000000"
     id="path31" />
  <text
     fill="#000000"
     font-family="sans-serif"
     font-size="12px"
     font-style="italic"
     lengthAdjust="spacingAndGlyphs"
     textLength="71"
     x="42"
     y="148.1543"
     id="text33"
     transform="translate(-11.669509,-124.54812)">WidgetData</text>
  <rect
     fill="#ffffff"
     height="15.9688"
     style="stroke:#000000;stroke-width:1;stroke-dasharray:2, 2"
     width="9"
     x="109.33049"
     y="0.45188141"
     id="rect35" />
  <text
     fill="#000000"
     font-family="sans-serif"
     font-size="12px"
     font-style="italic"
     lengthAdjust="spacingAndGlyphs"
     textLength="7"
     x="122"
     y="137.1387"
     id="text37"
     transform="translate(-11.669509,-124.54812)">T</text>
  <line
     style="stroke:#a80036;stroke-width:1.5"
     x1="2.3304911"
     x2="114.33049"
     y1="35.451881"
     y2="35.451881"
     id="line39" />
  <line
     style="stroke:#a80036;stroke-width:1.5"
     x1="2.3304911"
     x2="114.33049"
     y1="43.451881"
     y2="43.451881"
     id="line41" />
  <circle
     cx="12.330491"
     cy="54.451881"
     fill="#84be84"
     style="stroke:#038048;stroke-width:1"
     id="ellipse43"
     r="3" />
  <text
     fill="#000000"
     font-family="sans-serif"
     font-size="11px"
     lengthAdjust="spacingAndGlyphs"
     textLength="81"
     x="33"
     y="182.2104"
     id="text45"
     transform="translate(-11.669509,-124.54812)">getWidget(): T</text>
</svg>
